<?xml version="1.0" encoding="UTF-8" standalone="no"?>
<!-- Created with Inkscape (http://www.inkscape.org/) -->

<svg
   version="1.1"
   id="svg1"
   width="420"
   height="594"
   viewBox="0 0 420 594"
   sodipodi:docname="logo-pic.png"
   xmlns:inkscape="http://www.inkscape.org/namespaces/inkscape"
   xmlns:sodipodi="http://sodipodi.sourceforge.net/DTD/sodipodi-0.dtd"
   xmlns="http://www.w3.org/2000/svg"
   xmlns:svg="http://www.w3.org/2000/svg">
  <defs
     id="defs1" />
  <sodipodi:namedview
     id="namedview1"
     pagecolor="#505050"
     bordercolor="#eeeeee"
     borderopacity="1"
     inkscape:showpageshadow="0"
     inkscape:pageopacity="0"
     inkscape:pagecheckerboard="0"
     inkscape:deskcolor="#505050" />
  <g
     inkscape:groupmode="layer"
     inkscape:label="Image"
     id="g1">
    <path
       style="fill:#000000"
       d="M 57.821838,591.21961 C 56.279237,587.42488 56.242117,506.55689 57.772393,483.5 c 1.812158,-27.30405 2.856388,-35.82715 7.71861,-63 9.100895,-50.86095 12.056498,-70.90051 13.097235,-88.80177 1.093536,-18.80944 3.497657,-47.39014 4.474871,-53.19823 3.05238,-18.14185 8.480791,-40.94662 11.848982,-49.7776 1.694282,-4.4422 9.957889,-12.55222 16.528859,-16.22164 6.58467,-3.67708 13.91096,-6.11702 37.28752,-12.41817 20.4547,-5.51357 31.81381,-9.74181 35.96654,-13.38796 1.89583,-1.66455 5.03998,-6.2143 6.98702,-10.11054 1.94704,-3.89625 4.23484,-7.87159 5.08401,-8.83409 1.62597,-1.84298 5.80677,-2.48585 4.71888,-0.7256 -0.90518,1.46461 0.49631,7.10523 1.59645,6.42531 0.50525,-0.31226 0.91863,0.33226 0.91863,1.43226 0,2.77212 1.70635,3.55454 3.60698,1.65391 1.21672,-1.21672 1.32286,-1.91549 0.45059,-2.96651 -0.86465,-1.04184 -0.82815,-1.50043 0.15069,-1.89318 0.93467,-0.37502 0.8771,-0.54187 -0.20826,-0.60357 -2.40829,-0.1369 -4.94626,-5.41289 -3.69351,-7.67817 0.96567,-1.74619 0.90139,-1.77706 -0.82137,-0.39445 -1.29332,1.03796 -1.62232,1.09005 -1.06808,0.16913 0.44053,-0.73199 1.38919,-3.86135 2.10813,-6.95416 1.18465,-5.09617 1.13001,-5.97055 -0.58292,-9.32818 -1.03956,-2.0377 -3.58934,-5.76336 -5.66618,-8.27924 -9.58162,-11.60719 -15.952,-22.9148 -14.98746,-26.6032 0.27669,-1.05806 -0.11511,-2.10753 -0.89912,-2.40838 -0.76422,-0.29326 -1.3954,-1.78482 -1.40263,-3.31459 C 180.97964,104.75162 180.08107,99.225 178.99004,94 177.89901,88.775 176.72013,78.65 176.3703,71.5 175.77495,59.331968 175.89343,58.044352 178.22162,51.38023 181.55518,41.838398 189.53298,28.606073 194.70566,24.039105 203.70849,16.090481 219.88762,10 232,10 c 9.70971,0 29.58737,6.170462 35.91716,11.149477 3.24415,2.551847 6.81536,7.898284 7.66281,11.471938 0.37545,1.583222 1.68362,4.228585 2.90704,5.878585 6.86936,9.264492 8.19835,15.37393 9.10602,41.860811 l 0.6806,19.860809 -2.13681,-0.678196 C 283.9754,98.857418 283.11639,100.33587 285,101.5 c 1.79947,1.11214 1.0508,5.96098 -1.5,9.71481 -1.375,2.0235 -2.5,3.97801 -2.5,4.34336 0,0.36535 -1.78881,2.8008 -3.97513,5.41213 -6.98047,8.3374 -8.33439,12.69342 -8.55665,27.5297 -0.10712,7.15 0.20339,13.50776 0.69001,14.12836 0.51959,0.66265 0.4602,2.24504 -0.14389,3.83392 -1.16704,3.06956 -0.78437,4.05524 2.19298,5.64868 1.76167,0.94281 1.99898,0.86903 1.48798,-0.4626 -1.59468,-4.15567 2.26167,-2.04589 11.10621,6.07614 5.33417,4.89842 12.17349,10.72748 15.19849,12.95347 8.02996,5.90897 29.80664,16.4936 42.69403,20.75159 18.28924,6.04275 26.16344,12.30468 32.78282,26.07044 8.27885,17.21679 9.16668,22.41992 13.05346,76.5 1.36375,18.975 3.37962,43.95 4.47971,55.5 6.24318,65.54801 6.24318,64.3688 -7.3e-4,105 -2.80291,18.23944 -5.07002,34.61946 -8.51204,61.5 -2.2995,17.95798 -6.20671,32.65509 -13.07882,49.19634 -1.88014,4.52552 -3.41843,8.36424 -3.41843,8.53051 0,0.16627 -69.31634,0.28207 -154.0363,0.25734 l -154.03631,-0.045 z M 206.65546,512.54454 C 205.40703,509.29117 200,509.92316 200,513.32244 c 0,0.70205 0.41818,0.65938 1.2,-0.12244 0.66,-0.66 2.06248,-1.2 3.11663,-1.2 1.46723,0 1.78517,0.50273 1.35595,2.14405 -0.40046,1.53135 -0.25296,1.83633 0.51615,1.06722 0.59226,-0.59226 0.80229,-1.79229 0.46673,-2.66673 z M 112.1504,501.91951 c 3.77562,-2.02065 5.14113,-7.50307 5.6349,-22.62369 0.25511,-7.8123 0.19982,-14.89221 -0.12287,-15.73314 -0.84588,-2.20432 -3.1099,-0.96748 -6.08349,3.32342 -2.28259,3.29376 -2.71793,5.33003 -3.67201,17.17534 -0.76564,9.50588 -0.77133,14.24332 -0.0194,16.18856 1.19465,3.09062 1.43306,3.18399 4.26289,1.66951 z m 232.22384,-19.67133 c 1.32436,-2.6135 3.17999,-7.83033 4.12362,-11.59295 1.65337,-6.59265 1.64103,-7.30082 -0.33985,-19.49817 -1.13055,-6.96138 -2.8032,-18 -3.717,-24.53027 -1.69444,-12.10889 -8.86734,-34.60223 -11.29204,-35.41047 -0.61615,-0.20538 -1.64965,0.78845 -2.29668,2.20851 -1.78606,3.91999 2.67745,44.82063 6.17409,56.57517 0.57263,1.925 1.47163,9.8 1.99777,17.5 0.92616,13.55417 1.70018,19.5 2.53846,19.5 0.22203,0 1.48727,-2.13832 2.81163,-4.75182 z M 209.60539,453.39677 c 1.42749,0.54378 1.61261,0.43744 0.75083,-0.4313 -1.67041,-1.68392 -4.77762,-0.75737 -5.18458,1.54601 -0.344,1.947 -0.32116,1.94859 1.09391,0.076 0.99154,-1.31211 2.04,-1.68591 3.33984,-1.19075 z M 211.36163,393.5 c 0.31658,-0.825 0.13972,-1.5 -0.39301,-1.5 -0.53274,0 -0.96862,0.675 -0.96862,1.5 0,0.825 0.17686,1.5 0.39301,1.5 0.21616,0 0.65203,-0.675 0.96862,-1.5 z M 314.5,278 c 0,-5.77891 -2.1427,-6.40323 -2.73476,-0.79683 -0.50582,4.78984 -0.13519,6.08681 1.5764,5.51628 C 313.98184,282.50605 314.5,280.39494 314.5,278 Z M 240,237.5 c 0.52277,-1.375 1.63664,-2.5 2.47525,-2.5 2.48546,0 1.73551,-1.909 -1.02182,-2.60104 -2.83648,-0.71192 -4.59192,0.27938 -2.63572,1.48838 0.93257,0.57636 0.99641,1.47136 0.2458,3.44563 C 238.5058,238.79984 238.2745,240 238.5495,240 c 0.275,0 0.92773,-1.125 1.4505,-2.5 z m -11.6,-3.4 c -0.88477,-1.77356 -1.8199,-3.01343 -2.07807,-2.75526 -0.25817,0.25817 0.27196,1.90304 1.17807,3.65526 0.90611,1.75222 1.84124,2.99209 2.07807,2.75526 0.23683,-0.23683 -0.2933,-1.8817 -1.17807,-3.65526 z M 269,224 c 0,-0.55 -0.45,-1 -1,-1 -0.55,0 -1,0.45 -1,1 0,0.55 0.45,1 1,1 0.55,0 1,-0.45 1,-1 z m 11.59731,-13.96361 c 1.63149,-7.83458 1.63354,-7.47287 -0.0344,-6.08858 -0.85958,0.71339 -1.56288,2.1608 -1.56288,3.21645 0,1.05565 -0.85788,2.8402 -1.90641,3.96566 -1.04852,1.12545 -2.12566,2.88473 -2.39364,3.90949 -0.44723,1.71018 -0.24676,1.6854 2.44096,-0.30171 1.61052,-1.19071 3.16589,-3.3063 3.4564,-4.70131 z M 273,175.63867 c 0,-0.95073 -0.82944,-1.19671 -2.75,-0.81554 l -2.75,0.54578 2.5,0.71587 c 1.375,0.39372 2.6125,0.76072 2.75,0.81554 0.1375,0.0548 0.25,-0.51292 0.25,-1.26165 z m -66.5841,-11.28011 c 0.52667,-1.37248 0.38034,-1.43434 -0.89301,-0.37756 -1.73524,1.44013 -1.91584,2.019 -0.62988,2.019 0.49116,0 1.17646,-0.73865 1.52289,-1.64144 z M 268,157 c 0,-0.55 -0.19844,-1 -0.44098,-1 -0.24254,0 -0.7191,0.45 -1.05902,1 -0.33992,0.55 -0.14148,1 0.44098,1 0.58246,0 1.05902,-0.45 1.05902,-1 z m -24.04508,-24.44568 c 0.8858,-1.06732 0.90118,-1.95468 0.0611,-3.52439 l -1.12277,-2.0979 -3.94662,2.21812 c -5.43718,3.05587 -5.34778,4.19408 0.36056,4.59025 2.04052,0.14162 3.95032,-0.34576 4.64773,-1.18608 z M 225,120 c 0,-0.55 -1.82656,-1 -4.05902,-1 -2.45136,0 -3.81423,0.39607 -3.44098,1 0.33992,0.55 2.16648,1 4.05902,1 1.89254,0 3.44098,-0.45 3.44098,-1 z m 7.5,-1 c 0.33992,-0.55 -0.30852,-1 -1.44098,-1 -1.13246,0 -2.05902,0.45 -2.05902,1 0,0.55 0.64844,1 1.44098,1 0.79254,0 1.7191,-0.45 2.05902,-1 z m 5.76903,-1.65594 c -0.67703,-0.27392 -2.02703,-0.29059 -3,-0.037 -0.97297,0.25354 -0.41903,0.47766 1.23097,0.49804 1.65,0.0204 2.44606,-0.18706 1.76903,-0.46099 z M 233.75,112.91738 c 4.72467,-0.10553 6.25,-0.49297 6.25,-1.58751 0,-0.79635 -0.44502,-1.17287 -0.98893,-0.83671 -0.5439,0.33615 -2.47462,-0.0938 -4.29048,-0.95551 -3.59152,-1.70429 -6.42733,-1.61072 -14.47059,0.47746 -4.631,1.20229 -6.27779,2.62377 -4.7776,4.12396 0.25982,0.25982 3.07232,0.12264 6.25,-0.30484 3.17768,-0.42749 8.5901,-0.84007 12.0276,-0.91685 z m -39.40396,-12.35081 c 4.83855,-4.337091 4.84339,-4.347829 3.13499,-6.955184 -0.94108,-1.436262 -2.3343,-2.667636 -3.09604,-2.736386 -0.76174,-0.06875 -1.94749,-0.196623 -2.63499,-0.284163 -0.6875,-0.08754 -2.2868,0.98121 -3.554,2.375 -1.87862,2.066291 -2.19497,3.255056 -1.71346,6.438781 1.04849,6.932512 1.37235,6.980372 7.8635,1.161952 z m 78.14205,-6.656179 c 2.10971,-2.155703 2.84987,-6.393891 1.3262,-7.593881 -2.99307,-2.357229 -7.46884,-2.284702 -10.80286,0.175055 -3.55976,2.626307 -6.51256,6.340635 -5.69255,7.160648 0.28758,0.287582 2.02098,1.27665 3.852,2.197929 2.70115,1.35909 3.95233,1.467145 6.63301,0.572846 1.81715,-0.606213 3.92503,-1.736882 4.6842,-2.512597 z M 229.65496,90.5 c 8.18421,0 9.00766,-0.52808 5.15625,-3.306704 C 233.81504,86.474609 233,85.063547 233,84.057603 c 0,-1.005944 -0.67223,-3.117927 -1.49384,-4.693296 -0.82161,-1.575369 -1.49661,-3.566954 -1.5,-4.425746 -0.003,-0.858791 -0.95092,-2.575524 -2.10564,-3.814962 -1.99546,-2.141875 -2.19363,-2.168311 -4,-0.533574 -1.04528,0.945973 -1.90329,2.887706 -1.90668,4.314963 -0.003,1.427256 -0.67839,3.88395 -1.5,5.459319 C 219.67223,81.939676 219,84.016489 219,84.979448 c 0,0.962959 -0.92826,2.930922 -2.06279,4.373252 l -2.0628,2.622418 3.3128,-0.737559 C 220.00924,90.831901 225.16973,90.5 229.65496,90.5 Z M 205.65535,86.849258 C 213.30862,85.710976 218,83.069808 218,79.899432 c 0,-0.655313 -1.05606,-0.05197 -2.3468,1.340765 -2.73009,2.94581 -6.67202,3.786017 -19.01256,4.052449 -10.03076,0.216563 -9.91316,0.301699 -12.81062,-9.273751 -1.1569,-3.823316 -1.69456,-4.711528 -1.75,-2.891019 -0.0752,2.468178 1.56923,7.489157 4.13378,12.622124 0.95335,1.908123 1.92798,2.25 6.41433,2.25 2.9096,0 8.77184,-0.517834 13.02722,-1.150742 z m 59.37514,-2.865575 c 1.04445,-0.558974 2.4377,-2.814318 3.0961,-5.011875 0.65841,-2.197557 1.79927,-4.495315 2.53526,-5.106128 1.7851,-1.481503 1.70112,-5.319555 -0.15002,-6.855859 -1.71748,-1.425387 -1.68865,-1.485089 -3.45924,7.162901 -0.63879,3.119996 -1.87503,6.264951 -2.7472,6.988787 -1.12193,0.931119 -5.22531,1.319345 -14.02875,1.327278 -11.87552,0.0107 -12.53042,-0.09645 -14.35982,-2.349571 C 234.4648,78.350881 234,78.169019 234,79.389216 234,80.275147 234.9,81.9 236,83 c 1.78778,1.787783 3.33333,2 14.56574,2 6.91116,0 13.4203,-0.457343 14.46475,-1.016317 z m 14.58679,-11.068806 c -2.7195,-8.660619 -6.75737,-16.376925 -4.55932,-8.712784 1.24298,4.334004 5.22165,13.851625 5.62276,13.45052 0.17757,-0.177572 -0.30098,-2.309553 -1.06344,-4.737736 z M 201.06607,55.151191 c 5.68875,-2.885704 7.01654,-3.007055 17.93393,-1.639031 4.58291,0.57427 6.64537,0.255541 12.36906,-1.911486 C 235.14704,50.170303 239.68909,49 241.46251,49 c 3.47337,0 13.99713,3.306648 16.11332,5.062933 0.71144,0.590441 2.67044,0.930324 4.35334,0.755298 3.03157,-0.315294 3.04602,-0.344671 1.56532,-3.182538 C 262.67252,50.060324 262,47.732351 262,46.462418 c 0,-3.621146 -4.35559,-7.900095 -11.14144,-10.945405 -5.88524,-2.641138 -6.74727,-2.757803 -15.7918,-2.137226 -5.26172,0.361025 -11.36676,1.123821 -13.56676,1.695101 -2.2,0.571281 -5.65216,1.457464 -7.67147,1.969296 -4.89852,1.241621 -11.04706,4.801469 -15.90021,9.205816 -1.06057,0.9625 -2.3528,1.75 -2.87162,1.75 -1.62809,0 -4.0567,4.323868 -4.0567,7.222506 0,3.683978 2.70077,3.664844 10.06607,-0.07132 z"
       id="path1" />
  </g>
</svg>
